HIERARCHY
ROOT Hips
{
	OFFSET 0.00000 0.00000 0.00000
	CHANNELS 6 Xposition Yposition Zposition Zrotation Yrotation Xrotation 
	JOINT LHipJoint
	{
		OFFSET 0 0 0
		CHANNELS 3 Zrotation Yrotation Xrotation
		JOINT LeftUpLeg
		{
			OFFSET 1.37590 -1.78394 0.89329
			CHANNELS 3 Zrotation Yrotation Xrotation
			JOINT LeftLeg
			{
				OFFSET 2.47928 -6.81178 0.00000
				CHANNELS 3 Zrotation Yrotation Xrotation
				JOINT LeftFoot
				{
					OFFSET 2.63345 -7.23535 0.00000
					CHANNELS 3 Zrotation Yrotation Xrotation
					JOINT LeftToeBase
					{
						OFFSET 0.23938 -0.65768 2.27012
						CHANNELS 3 Zrotation Yrotation Xrotation
						End Site
						{
							OFFSET 0.00000 -0.00000 1.18363
						}
					}
				}
			}
		}
	}
	JOINT RHipJoint
	{
		OFFSET 0 0 0
		CHANNELS 3 Zrotation Yrotation Xrotation
		JOINT RightUpLeg
		{
			OFFSET -1.33617 -1.78394 0.89329
			CHANNELS 3 Zrotation Yrotation Xrotation
			JOINT RightLeg
			{
				OFFSET -2.56922 -7.05888 0.00000
				CHANNELS 3 Zrotation Yrotation Xrotation
				JOINT RightFoot
				{
					OFFSET -2.56568 -7.04915 0.00000
					CHANNELS 3 Zrotation Yrotation Xrotation
					JOINT RightToeBase
					{
						OFFSET -0.27533 -0.75646 2.18105
						CHANNELS 3 Zrotation Yrotation Xrotation
						End Site
						{
							OFFSET -0.00000 -0.00000 1.15233
						}
					}
				}
			}
		}
	}
	JOINT LowerBack
	{
		OFFSET 0 0 0
		CHANNELS 3 Zrotation Yrotation Xrotation
		JOINT Spine
		{
			OFFSET 0.06190 2.15152 -0.00935
			CHANNELS 3 Zrotation Yrotation Xrotation
			JOINT Spine1
			{
				OFFSET 0.06334 2.15332 0.00872
				CHANNELS 3 Zrotation Yrotation Xrotation
				JOINT Neck
				{
					OFFSET 0 0 0
					CHANNELS 3 Zrotation Yrotation Xrotation
					JOINT Neck1
					{
						OFFSET -0.04202 1.66908 0.23524
						CHANNELS 3 Zrotation Yrotation Xrotation
						JOINT Head
						{
							OFFSET 0.07510 1.69357 -0.24440
							CHANNELS 3 Zrotation Yrotation Xrotation
							End Site
							{
								OFFSET 0.02556 1.71719 -0.11000
							}
						}
					}
				}
				JOINT LeftShoulder
				{
					OFFSET 0 0 0
					CHANNELS 3 Zrotation Yrotation Xrotation
					JOINT LeftArm
					{
						OFFSET 3.67168 1.26306 -0.41342
						CHANNELS 3 Zrotation Yrotation Xrotation
						JOINT LeftForeArm
						{
							OFFSET 4.68510 -0.00000 -0.00000
							CHANNELS 3 Zrotation Yrotation Xrotation
							JOINT LeftHand
							{
								OFFSET 3.39626 -0.00000 -0.00000
								CHANNELS 3 Zrotation Yrotation Xrotation
								JOINT LeftFingerBase
								{
									OFFSET 0 0 0
									CHANNELS 3 Zrotation Yrotation Xrotation
									JOINT LeftHandIndex1
									{
										OFFSET 0.48608 -0.00000 -0.00000
										CHANNELS 3 Zrotation Yrotation Xrotation
										End Site
										{
											OFFSET 0.39189 -0.00000 -0.00000
										}
									}
								}
								JOINT LThumb
								{
									OFFSET 0 0 0
									CHANNELS 3 Zrotation Yrotation Xrotation
									End Site
									{
										OFFSET 0.39787 -0.00000 0.39787
									}
								}
							}
						}
					}
				}
				JOINT RightShoulder
				{
					OFFSET 0 0 0
					CHANNELS 3 Zrotation Yrotation Xrotation
					JOINT RightArm
					{
						OFFSET -3.04136 1.42992 -0.76390
						CHANNELS 3 Zrotation Yrotation Xrotation
						JOINT RightForeArm
						{
							OFFSET -5.55576 -0.00000 -0.00000
							CHANNELS 3 Zrotation Yrotation Xrotation
							JOINT RightHand
							{
								OFFSET -3.32774 -0.00000 -0.00000
								CHANNELS 3 Zrotation Yrotation Xrotation
								JOINT RightFingerBase
								{
									OFFSET 0 0 0
									CHANNELS 3 Zrotation Yrotation Xrotation
									JOINT RightHandIndex1
									{
										OFFSET -0.50763 -0.00000 -0.00000
										CHANNELS 3 Zrotation Yrotation Xrotation
										End Site
										{
											OFFSET -0.40926 -0.00000 -0.00000
										}
									}
								}
								JOINT RThumb
								{
									OFFSET 0 0 0
									CHANNELS 3 Zrotation Yrotation Xrotation
									End Site
									{
										OFFSET -0.41551 -0.00000 0.41551
									}
								}
							}
						}
					}
				}
			}
		}
	}
}
MOTION
Frames: 10
Frame Time: .0083333
47.1321 17.704 6.0025 0 0 0 0 0 0 -21 0 0 0 0 0 0 0 0 0 0 0 0 0 0 21 0 0 0 0 0 0 0 0 0 0 0 0 0 0 0 0 0 0 0 0 0 0 -16 0 0 21 0 0 11 0 0 0 -8 0 0 0 0 0 0 0 0 0 0 0 0 0 0 0 0 0 0 0 0 8 0 0 0 0 0 0 0 0 0 0 0 0 0 0 0 0 0
47.1321 17.7040 6.0025 -79.5830 -86.4058 88.5133 0.0000 0.0000 0.0000 -16.4622 -6.7442 -10.3299 0.3935 4.0277 11.1547 0.2138 -2.7094 -8.2178 0.2077 -2.9343 -8.0960 0.0000 0.0000 0.0000 20.7988 7.6517 -19.5722 -2.0292 -8.9267 25.5662 -0.1447 -7.9313 -13.9081 -0.5358 -4.6902 13.0270 0.1188 -1.2038 0.0312 2.1177 -1.6067 -0.9450 2.1163 -0.8036 -0.9277 -6.4717 -2.9567 -21.5853 6.3221 -3.2767 14.1384 2.7521 -1.2606 8.1267 0.0000 0.0000 0.0000 -92.2709 -3.5895 1.6709 12.2343 -20.1551 -2.1824 -0.0000 -0.0000 35.5958 13.5472 21.1815 4.9757 -7.1250 0.0000 -0.0000 -15.1925 51.0826 -2.3223 0.0000 0.0000 0.0000 86.8089 2.6691 13.8705 -19.2182 29.6889 -5.1385 0.0000 0.0000 13.1002 -16.0655 -23.9675 6.6724 7.1250 -0.0000 -0.0000 13.9718 -54.2599 -3.2274
47.1261 17.7024 6.0065 -80.9486 -86.3718 89.9217 0.0000 0.0000 0.0000 -16.4049 -6.6677 -10.3633 0.3935 4.0278 11.1548 0.2190 -2.7274 -8.3187 0.1931 -2.8299 -7.8055 0.0000 0.0000 0.0000 20.8318 7.5882 -19.6399 -2.0352 -8.9390 25.6046 -0.1655 -7.7703 -14.0506 -0.5111 -4.5825 12.7215 0.2047 -1.1470 -0.0320 2.0719 -1.5314 -0.9391 2.0190 -0.7668 -0.8924 -6.4428 -2.9256 -21.6453 6.3094 -3.2377 14.1550 2.7483 -1.2408 8.1390 -0.0000 0.0000 0.0000 -92.2641 -3.6020 1.3984 12.1763 -20.0685 -2.1624 -0.0000 -0.0000 35.6304 13.3599 20.9279 4.8489 -7.1250 0.0000 -0.0000 -15.2652 50.8045 -2.2279 -0.0000 0.0000 0.0000 86.7508 2.7197 13.9446 -19.2031 29.6703 -5.1310 0.0000 0.0000 13.1397 -15.9059 -24.1421 6.6480 7.1250 -0.0000 -0.0000 14.2161 -54.4016 -3.3351
47.1181 17.7000 6.0100 -81.9520 -86.3798 90.9464 0.0000 0.0000 0.0000 -16.4220 -6.5523 -10.3830 0.3923 4.0220 11.1384 0.2268 -2.7831 -8.4649 0.2121 -2.9648 -8.1808 0.0000 0.0000 0.0000 20.8161 7.4654 -19.7223 -2.0514 -8.9722 25.7085 -0.1900 -7.5766 -14.2127 -0.4830 -4.4565 12.3648 0.2403 -1.0911 -0.0903 2.0187 -1.4573 -0.9355 1.9426 -0.7301 -0.8606 -6.4699 -2.9090 -21.6667 6.3602 -3.2175 14.1941 2.7731 -1.2272 8.1559 -0.0000 -0.0000 0.0000 -92.2552 -3.5821 1.2754 12.1452 -20.0220 -2.1517 -0.0000 -0.0000 35.4973 13.0473 21.0134 4.7502 -7.1250 0.0000 -0.0000 -15.6005 50.8376 -2.2918 -0.0000 -0.0000 0.0000 86.6919 2.7053 13.9406 -19.2062 29.6741 -5.1325 0.0000 0.0000 13.2343 -15.9125 -23.9717 6.6071 7.1250 -0.0000 -0.0000 14.1275 -54.2352 -3.2559
47.1040 17.7005 6.0104 -76.4693 -86.3586 85.4012 0.0000 0.0000 0.0000 -16.4454 -6.6592 -10.2506 0.3951 4.0357 11.1772 0.2390 -3.0854 -8.6858 0.2100 -2.9503 -8.1405 0.0000 0.0000 0.0000 20.7936 7.0448 -19.6126 -2.0353 -8.9392 25.6053 -0.2151 -7.5371 -14.5458 -0.4849 -4.4653 12.3896 0.2128 -1.1484 -0.1160 1.9856 -1.5342 -0.9085 1.9234 -0.7685 -0.8163 -6.4559 -2.9211 -21.6587 6.3691 -3.2428 14.2404 2.7709 -1.2376 8.1718 0.0000 0.0000 0.0000 -92.2597 -3.5527 1.1471 12.0716 -19.9120 -2.1266 -0.0000 -0.0000 35.7144 12.8149 20.7122 4.5995 -7.1250 0.0000 -0.0000 -15.6954 50.5073 -2.1767 0.0000 0.0000 0.0000 86.6192 2.7078 13.9047 -19.1706 29.6301 -5.1149 0.0000 0.0000 13.1737 -15.8847 -24.1018 6.6284 7.1250 -0.0000 -0.0000 14.2180 -54.3580 -3.3204
47.0931 17.6990 6.0110 -74.2787 -86.3328 83.2078 0.0000 0.0000 0.0000 -16.4448 -6.5859 -10.2849 0.4006 4.0637 11.2559 0.2514 -3.3544 -8.9093 0.2258 -3.0585 -8.4416 0.0000 0.0000 0.0000 20.7921 6.7574 -19.6519 -2.0399 -8.9488 25.6351 -0.2398 -7.4329 -14.7981 -0.4740 -4.4155 12.2486 0.2084 -1.1385 -0.1842 1.9532 -1.5220 -0.8892 1.8907 -0.7625 -0.7594 -6.4486 -2.9211 -21.6606 6.3900 -3.2495 14.2476 2.7760 -1.2382 8.1753 -0.0000 -0.0000 0.0000 -92.2648 -3.5470 1.1364 12.0275 -19.8458 -2.1116 -0.0000 -0.0000 35.7461 12.7421 20.5213 4.5325 -7.1250 0.0000 -0.0000 -15.6852 50.3100 -2.0979 -0.0000 -0.0000 0.0000 86.5532 2.7252 13.7854 -19.1197 29.5671 -5.0898 0.0000 0.0000 13.2953 -15.8795 -23.9773 6.5942 7.1250 -0.0000 -0.0000 14.1633 -54.2344 -3.2641
47.0815 17.6968 6.0104 -72.8597 -86.3290 81.7839 0.0000 0.0000 0.0000 -16.4527 -6.4731 -10.3478 0.4076 4.0983 11.3535 0.2630 -3.5410 -9.1158 0.2728 -3.3596 -9.2817 0.0000 0.0000 0.0000 20.7604 6.5662 -19.6997 -2.0541 -8.9779 25.7263 -0.2660 -7.3539 -15.0894 -0.4600 -4.3508 12.0659 0.1689 -1.1021 -0.2385 1.9160 -1.4742 -0.8699 1.8730 -0.7384 -0.7107 -6.4683 -2.9320 -21.6923 6.4574 -3.2729 14.3062 2.7996 -1.2428 8.2038 -0.0000 0.0000 0.0000 -92.2577 -3.5476 1.1359 11.9728 -19.7639 -2.0931 -0.0000 -0.0000 35.8403 12.6135 20.9596 4.5765 -7.1250 0.0000 -0.0000 -15.9921 50.7159 -2.3032 -0.0000 0.0000 0.0000 86.5049 2.6981 13.6307 -19.0684 29.5036 -5.0645 0.0000 0.0000 13.2868 -15.3782 -23.6948 6.3071 7.1250 -0.0000 -0.0000 14.5296 -53.8632 -3.2184
47.0869 17.6862 6.0168 -85.8250 -86.4233 95.0014 0.0000 0.0000 0.0000 -16.4213 -6.1938 -10.7219 0.4135 4.1278 11.4366 0.2864 -3.1739 -9.5142 0.2852 -3.4346 -9.4911 0.0000 0.0000 0.0000 20.7173 7.0280 -20.3401 -2.1582 -9.1882 26.3857 -0.2950 -6.8574 -15.0062 -0.3462 -3.7809 10.4610 0.2407 -0.7938 -0.3665 1.8185 -1.0633 -0.9698 1.7305 -0.5331 -0.7572 -6.4962 -2.9264 -21.6608 6.5441 -3.2778 14.3373 2.8334 -1.2384 8.2116 -0.0000 0.0000 0.0000 -92.2045 -3.5231 1.0517 11.9235 -19.6898 -2.0764 -0.0000 -0.0000 35.9041 12.6506 20.5245 4.4996 -7.1250 0.0000 -0.0000 -15.7734 50.2986 -2.1057 -0.0000 0.0000 0.0000 86.5058 2.7237 13.4789 -18.9496 29.3560 -5.0061 0.0000 0.0000 13.5137 -15.7031 -23.9130 6.5015 7.1250 -0.0000 -0.0000 14.3092 -54.1381 -3.2649
47.0737 17.6842 6.0152 -82.6522 -86.4539 91.8091 0.0000 0.0000 0.0000 -16.4455 -6.1895 -10.7544 0.4247 4.1825 11.5906 0.2991 -3.4603 -9.7205 0.2933 -3.4828 -9.6258 0.0000 0.0000 0.0000 20.6710 6.7563 -20.3733 -2.1727 -9.2168 26.4760 -0.3257 -6.7647 -15.3406 -0.3577 -3.8422 10.6331 0.2086 -0.8010 -0.4160 1.7687 -1.0732 -0.9531 1.6964 -0.5380 -0.7124 -6.5173 -2.9340 -21.6514 6.6247 -3.3002 14.3638 2.8617 -1.2421 8.2225 0.0000 -0.0000 0.0000 -92.1796 -3.5321 1.0074 11.8518 -19.5820 -2.0523 -0.0000 -0.0000 36.1341 12.4023 20.9210 4.4899 -7.1250 0.0000 -0.0000 -16.1769 50.6448 -2.3023 0.0000 -0.0000 0.0000 86.4880 2.7226 13.2726 -18.8576 29.2414 -4.9611 0.0000 0.0000 13.6238 -15.7249 -23.8421 6.4929 7.1250 -0.0000 -0.0000 14.2535 -54.0724 -3.2287
47.0526 17.6877 6.0099 -71.9930 -86.4069 80.9574 0.0000 0.0000 0.0000 -16.5229 -6.3373 -10.5527 0.4350 4.2324 11.7314 0.3022 -3.9239 -9.7766 0.2976 -3.5080 -9.6964 0.0000 0.0000 0.0000 20.6363 6.0860 -20.1216 -2.1535 -9.1787 26.3559 -0.3588 -6.8205 -15.8338 -0.3825 -3.9720 10.9978 0.1539 -0.9677 -0.3600 1.7275 -1.2949 -0.8810 1.6852 -0.6484 -0.6635 -6.5437 -2.9458 -21.5948 6.7013 -3.3292 14.4011 2.8887 -1.2506 8.2297 -0.0000 0.0000 0.0000 -92.1413 -3.5454 0.9140 11.7763 -19.4683 -2.0271 -0.0000 -0.0000 36.2820 12.5271 20.7249 4.4959 -7.1250 0.0000 -0.0000 -15.9748 50.4742 -2.2040 -0.0000 0.0000 0.0000 86.4895 2.6936 13.1088 -18.7552 29.1133 -4.9112 0.0000 0.0000 13.6085 -15.8506 -24.0657 6.6043 7.1250 -0.0000 -0.0000 14.2348 -54.3161 -3.3097
